# ProBuilder 5.0.4
# https://unity3d.com/unity/features/worldbuilding/probuilder
# 6/30/2022 6:00:34 PM

mtllib ./Computer_Trio.mtl
o Computer Trio

g Keyboard
v -0.5 -0.5 0.5
v -0.5 0.5 0.5
v 0.5 0.5 0.5
v 0.5 -0.5 0.5
v -0.5 0.5 -0.5
v 0.5 0.5 -0.5
v -0.5 -0.5 -0.5
v 0.5 -0.5 -0.5
v -3.264831 -3.085557 -0.8418674
v -3.264831 8.137527 -1.339816
v 0.815893 8.137527 -1.339816
v 0.815893 -3.085557 -0.8418674
v -3.264831 7.435778 -2.521765
v 0.815893 7.435778 -2.521765
v -3.264831 -3.787307 -2.023816
v 0.815893 -3.787307 -2.023816
v -3.264886 -11.3457 0.6368479
v -3.264886 0.01187812 0.7817757
v 0.8159474 0.01187812 0.7817757
v 0.8159474 -11.3457 0.6368479
v -3.264886 0.5420367 -2.322996
v 0.8159474 0.5420367 -2.322996
v -3.264886 -10.81554 -2.467924
v 0.8159474 -10.81554 -2.467924
v -2.87451 -0.4999995 0.5000002
v -2.87451 0.4999995 0.5000007
v -1.87451 0.4999995 0.5000007
v -1.87451 -0.4999995 0.5000002
v -2.87451 0.4999997 -0.5000017
v -1.87451 0.4999997 -0.5000017
v -2.87451 -0.4999993 -0.5000021
v -1.87451 -0.4999993 -0.5000021
v -1.696643 1.202966 -0.8410016
v -1.696643 7.885995 -1.137513
v -0.6966431 7.885995 -1.137513
v -0.6966431 1.202966 -0.8410016
v -1.696643 7.299943 -2.124593
v -0.6966431 7.299943 -2.124593
v -1.696643 0.6169135 -1.828081
v -0.6966431 0.6169135 -1.828081
v -0.4927975 1.202966 -0.8410016
v -0.4927975 7.885995 -1.137513
v 0.5072025 7.885995 -1.137513
v 0.5072025 1.202966 -0.8410016
v -0.4927975 7.299943 -2.124593
v 0.5072025 7.299943 -2.124593
v -0.4927975 0.6169135 -1.828081
v 0.5072025 0.6169135 -1.828081
v -2.969863 1.202966 -0.8410016
v -2.969863 7.885995 -1.137513
v -1.969863 7.885995 -1.137513
v -1.969863 1.202966 -0.8410016
v -2.969863 7.299943 -2.124593
v -1.969863 7.299943 -2.124593
v -2.969863 0.6169135 -1.828081
v -1.969863 0.6169135 -1.828081
v -1.714089 -0.4999995 0.5000002
v -1.714089 0.4999995 0.5000007
v -0.7140891 0.4999995 0.5000007
v -0.7140891 -0.4999995 0.5000002
v -1.714089 0.4999997 -0.5000017
v -0.7140891 0.4999997 -0.5000017
v -1.714089 -0.4999993 -0.5000021
v -0.7140891 -0.4999993 -0.5000021

vt 0 0
vt 0 1
vt 1 1
vt 1 0

vn 0 0 1
vn 0 1 0
vn 0 0 -1
vn 0 -1 0
vn 1 0 0
vn -1 0 0
vn 0 0.04432468 0.9990172
vn 0 0.8598652 -0.5105211
vn 0 -0.04432469 -0.9990172
vn 0 -0.859865 0.5105214
vn 0 -0.01275942 0.9999186
vn 0 0.9857325 0.1683198
vn 0 0.01275941 -0.9999186
vn 0 -0.9857324 -0.1683199

usemtl Default_-_Prop_-_Sec
f 4/4/1 3/3/1 2/2/1 1/1/1
f 3/4/2 6/3/2 5/2/2 2/1/2
f 6/4/3 8/3/3 7/2/3 5/1/3
f 8/4/4 4/3/4 1/2/4 7/1/4
f 8/4/5 6/3/5 3/2/5 4/1/5
f 1/4/6 2/3/6 5/2/6 7/1/6
f 28/4/1 27/3/1 26/2/1 25/1/1
f 27/4/2 30/3/2 29/2/2 26/1/2
f 30/4/3 32/3/3 31/2/3 29/1/3
f 32/4/4 28/3/4 25/2/4 31/1/4
f 32/4/5 30/3/5 27/2/5 28/1/5
f 25/4/6 26/3/6 29/2/6 31/1/6
f 36/4/7 35/3/7 34/2/7 33/1/7
f 35/4/8 38/3/8 37/2/8 34/1/8
f 38/4/9 40/3/9 39/2/9 37/1/9
f 40/4/10 36/3/10 33/2/10 39/1/10
f 40/4/5 38/3/5 35/2/5 36/1/5
f 33/4/6 34/3/6 37/2/6 39/1/6
f 44/4/7 43/3/7 42/2/7 41/1/7
f 43/4/8 46/3/8 45/2/8 42/1/8
f 46/4/9 48/3/9 47/2/9 45/1/9
f 48/4/10 44/3/10 41/2/10 47/1/10
f 48/4/5 46/3/5 43/2/5 44/1/5
f 41/4/6 42/3/6 45/2/6 47/1/6
f 52/4/7 51/3/7 50/2/7 49/1/7
f 51/4/8 54/3/8 53/2/8 50/1/8
f 54/4/9 56/3/9 55/2/9 53/1/9
f 56/4/10 52/3/10 49/2/10 55/1/10
f 56/4/5 54/3/5 51/2/5 52/1/5
f 49/4/6 50/3/6 53/2/6 55/1/6
f 60/4/1 59/3/1 58/2/1 57/1/1
f 59/4/2 62/3/2 61/2/2 58/1/2
f 62/4/3 64/3/3 63/2/3 61/1/3
f 64/4/4 60/3/4 57/2/4 63/1/4
f 64/4/5 62/3/5 59/2/5 60/1/5
f 57/4/6 58/3/6 61/2/6 63/1/6

usemtl Default_-_Prop
f 12/4/7 11/3/7 10/2/7 9/1/7
f 11/4/8 14/3/8 13/2/8 10/1/8
f 14/4/9 16/3/9 15/2/9 13/1/9
f 16/4/10 12/3/10 9/2/10 15/1/10
f 16/4/5 14/3/5 11/2/5 12/1/5
f 9/4/6 10/3/6 13/2/6 15/1/6
f 20/4/11 19/3/11 18/2/11 17/1/11
f 19/4/12 22/3/12 21/2/12 18/1/12
f 22/4/13 24/3/13 23/2/13 21/1/13
f 24/4/14 20/3/14 17/2/14 23/1/14
f 24/4/5 22/3/5 19/2/5 20/1/5
f 17/4/6 18/3/6 21/2/6 23/1/6

