# ProBuilder 5.0.4
# https://unity3d.com/unity/features/worldbuilding/probuilder
# 6/30/2022 6:00:58 PM

mtllib ./Seat.mtl
o Seat

g Seat (1)
v -0.5 -0.5 0.5
v -0.5 0.5 0.5
v 0.5 0.5 0.5
v 0.5 -0.5 0.5
v -0.5 0.5 -0.5
v 0.5 0.5 -0.5
v -0.5 -0.5 -0.5
v 0.5 -0.5 -0.5
v -0.4132228 -1.346201 -0.4519933
v -0.4132228 -1.314588 -0.4519933
v 0.4132228 -1.314588 -0.4519933
v 0.4132228 -1.346201 -0.4519933
v -0.4132228 -1.314588 -3.828126
v 0.4132228 -1.314588 -3.828126
v -0.4132228 -1.346201 -3.828126
v 0.4132228 -1.346201 -3.828126
v -0.5000007 -0.6448033 -0.09748842
v -0.5000007 -0.4211996 -0.09748842
v 0.5000009 -0.4211996 -0.09748842
v 0.5000009 -0.6448033 -0.09748842
v -0.5000007 -0.4211996 -4.18261
v 0.5000009 -0.4211996 -4.18261
v -0.5000007 -0.6448033 -4.18261
v 0.5000009 -0.6448033 -4.18261
v -0.1243502 -1.337812 -1.632061
v -0.1243502 -0.6282459 -1.632061
v 0.1243502 -0.6282459 -1.632061
v 0.1243502 -1.337812 -1.632061
v -0.1243502 -0.6282459 -2.648037
v 0.1243502 -0.6282459 -2.648037
v -0.1243502 -1.337812 -2.648037
v 0.1243502 -1.337812 -2.648037

vt 0 0
vt 0 1
vt 1 1
vt 1 0

vn 0 0 1
vn 0 1 0
vn 0 0 -1
vn 0 -1 0
vn 1 0 0
vn -1 0 0

usemtl Default_-_Prop
f 4/4/1 3/3/1 2/2/1 1/1/1
f 3/4/2 6/3/2 5/2/2 2/1/2
f 6/4/3 8/3/3 7/2/3 5/1/3
f 8/4/4 4/3/4 1/2/4 7/1/4
f 8/4/5 6/3/5 3/2/5 4/1/5
f 1/4/6 2/3/6 5/2/6 7/1/6
f 12/4/1 11/3/1 10/2/1 9/1/1
f 11/4/2 14/3/2 13/2/2 10/1/2
f 14/4/3 16/3/3 15/2/3 13/1/3
f 16/4/4 12/3/4 9/2/4 15/1/4
f 16/4/5 14/3/5 11/2/5 12/1/5
f 9/4/6 10/3/6 13/2/6 15/1/6
f 20/4/1 19/3/1 18/2/1 17/1/1
f 19/4/2 22/3/2 21/2/2 18/1/2
f 22/4/3 24/3/3 23/2/3 21/1/3
f 24/4/4 20/3/4 17/2/4 23/1/4
f 24/4/5 22/3/5 19/2/5 20/1/5
f 17/4/6 18/3/6 21/2/6 23/1/6
f 28/4/1 27/3/1 26/2/1 25/1/1
f 27/4/2 30/3/2 29/2/2 26/1/2
f 30/4/3 32/3/3 31/2/3 29/1/3
f 32/4/4 28/3/4 25/2/4 31/1/4
f 32/4/5 30/3/5 27/2/5 28/1/5
f 25/4/6 26/3/6 29/2/6 31/1/6

